/* XPM */
static char *_1a4314fc0e74b44aebead4c896c7ab3vKPteS9iYWFzUQTb[] = {
/* columns rows colors chars-per-pixel */
"64 64 224 2 ",
"   c #010203",
".  c #010508",
"X  c #070C0C",
"o  c #12110F",
"O  c #161918",
"+  c #24221E",
"@  c #342817",
"#  c #1D1E22",
"$  c #1D2A33",
"%  c #232625",
"&  c #332E23",
"*  c #38342D",
"=  c #3D3B33",
"-  c #403217",
";  c #483F2D",
":  c #423F36",
">  c #7E4D1E",
",  c #67481C",
"<  c #514A3C",
"1  c #78592A",
"2  c #655336",
"3  c #745E39",
"4  c #6A4D21",
"5  c #584E43",
"6  c #5C564B",
"7  c #705F4B",
"8  c #766648",
"9  c #666157",
"0  c #7E6F50",
"q  c #746B54",
"w  c #6F6D67",
"e  c #797565",
"r  c #737476",
"t  c #814F1F",
"y  c #955B1D",
"u  c #85511F",
"i  c #855221",
"p  c #8D5A28",
"a  c #925C23",
"s  c #986628",
"d  c #926630",
"f  c #A56C24",
"g  c #AB7229",
"h  c #AB772B",
"j  c #B47A2D",
"k  c #BC7B2B",
"l  c #B37327",
"z  c #C07F2E",
"x  c #C17F31",
"c  c #937A4C",
"v  c #847E68",
"b  c #BE812D",
"n  c #B5812E",
"m  c #BB8432",
"M  c #BF8B32",
"N  c #AD8138",
"B  c #C1842E",
"V  c #C48D2E",
"C  c #C98F2B",
"Z  c #C7912F",
"A  c #CA932F",
"S  c #C28532",
"D  c #C58C33",
"F  c #C98C33",
"G  c #C78C3A",
"H  c #C79036",
"J  c #CA9435",
"K  c #C5923A",
"L  c #CB9639",
"P  c #CD993B",
"I  c #D0973E",
"U  c #D29D3C",
"Y  c #D59C39",
"T  c #D2A03D",
"R  c #9B8456",
"E  c #A88A54",
"W  c #8B826E",
"Q  c #9A8F79",
"!  c #B89967",
"~  c #BA9D74",
"^  c #A19276",
"/  c #CD9C42",
"(  c #CE9E4C",
")  c #CA9648",
"_  c #D39C42",
"`  c #C38F46",
"'  c #CEA049",
"]  c #D4A345",
"[  c #D9A446",
"{  c #D4A54C",
"}  c #DFAC4B",
"|  c #DCA847",
" . c #D2A552",
".. c #D4A952",
"X. c #DAAC55",
"o. c #D5AC5C",
"O. c #DBAD5B",
"+. c #D9A750",
"@. c #DBB25D",
"#. c #E2AE4C",
"$. c #E3B04E",
"%. c #E9B34F",
"&. c #E4B252",
"*. c #E3B65A",
"=. c #E3B85F",
"-. c #EBB855",
";. c #C9A967",
":. c #D4AC62",
">. c #D5AE6C",
",. c #DDAE60",
"<. c #DCB263",
"1. c #DEB964",
"2. c #DBB66B",
"3. c #DDBA6C",
"4. c #D5B16A",
"5. c #C2A175",
"6. c #C5A57A",
"7. c #C7A87C",
"8. c #C9AA7E",
"9. c #C6A979",
"0. c #DCBB74",
"q. c #DBBA7B",
"w. c #D7B674",
"e. c #CFB169",
"r. c #E3BC65",
"t. c #E3BE6C",
"y. c #E3B665",
"u. c #E3BE75",
"i. c #E9BE75",
"p. c #E4BF78",
"a. c #DFC17E",
"s. c #E4C16E",
"d. c #E5C067",
"f. c #E5C271",
"g. c #E9C573",
"h. c #EDCA74",
"j. c #E5C57B",
"k. c #ECC27C",
"l. c #E6C87E",
"z. c #E8C87E",
"x. c #F1C87A",
"c. c #85898A",
"v. c #A19A8A",
"b. c #ADA697",
"n. c #B6AF9F",
"m. c #ACACA6",
"M. c #AEB0AF",
"N. c #B4B1A7",
"B. c #CBAE82",
"V. c #C7AA80",
"C. c #CEB285",
"Z. c #CFB58A",
"A. c #CFB88E",
"S. c #DABD84",
"D. c #D0B68C",
"F. c #D1B88F",
"G. c #D4B885",
"H. c #D4BC93",
"J. c #D9BF95",
"K. c #D1B792",
"L. c #C3BA99",
"P. c #C1BDB2",
"I. c #DDC18A",
"U. c #D7C096",
"Y. c #D8C197",
"T. c #DBC59B",
"R. c #DEC89F",
"E. c #E4C583",
"W. c #E7CA82",
"Q. c #E8CA84",
"!. c #E1C58D",
"~. c #E6CB8C",
"^. c #E9CE8B",
"/. c #ECC681",
"(. c #EAD18E",
"). c #E4CC93",
"_. c #E3CD9C",
"`. c #E9CF92",
"'. c #EAD292",
"]. c #E5D09D",
"[. c #EAD49C",
"{. c #EDD99D",
"}. c #F3D896",
"|. c #F0D38D",
" X c #DDC7A0",
".X c #DECBA1",
"XX c #DACDAE",
"oX c #E1CEA6",
"OX c #E1CEA5",
"+X c #E1CEA9",
"@X c #E4D2A7",
"#X c #ECDDA4",
"$X c #E3D1A9",
"%X c #E4D2AA",
"&X c #E8D6AE",
"*X c #ECDCAC",
"=X c #E9D5A6",
"-X c #E6D6B2",
";X c #E8D6B0",
":X c #E7D8B3",
">X c #E9D9B3",
",X c #EADCB9",
"<X c #F0DDA5",
"1X c #EEE1AD",
"2X c #F3E3AD",
"3X c #EFE4B2",
"4X c #F1E3B3",
"5X c #F6EABD",
"6X c #F7E9B9",
"7X c #CBCBC7",
"8X c #DFDEDA",
"9X c #E0DDD6",
"0X c #F9EDC4",
"qX c #FAEFCB",
"wX c #F3EBC7",
"eX c #FBF1CD",
"rX c #FFF1C0",
"tX c #FDF5D3",
"yX c #FEF9D6",
"uX c #FAF5D8",
"iX c #EAE7DE",
"pX c #EDEDE8",
"aX c #F8F5E3",
"sX c #F9FAF7",
/* pixels */
"5.5.6.6.7.7.V.V.B.C.Z.Z.D.K.K.H.H.H.J.Y.Y.Y.Y.Y.I.R.T.R.R.R.R.R.R.R.R.R.R.R.T.T.T.Y.Y.Y.Y.U.H.H.H.K.K.A.D.C.C.B.B.V.7.7.7.6.5.5.",
"5.6.6.7.7.V.V.B.C.C.D.F.F.K.H.H.U.Y.Y.Y.Y.T. XS.[ S..XR.OX.X.X.X.X.X.XR..XR.R.R.R. X.XT.Y.U.J.H.H.H.K.F.Z.D.Z.C.V.V.V.7.7.7.6.5.",
"5.6.6.7.7.V.V.C.C.Z.D.F.K.H.H.U.U.Y.Y.Y.R.T.T.j.J ` .X.X.X.X.X.X.X.X.X.X.X.XR..XJ.:.;.T.T.Y.Y.U.U.H.H.K.F.A.D.C.C.V.V.7.7.7.6.5.",
"6.6.7.7.V.V.B.C.C.D.D.K.H.H.H.U.Y.Y.T.T.R.R..Xj.L f w.+X.X.X.X.X.X.X.X.X.X.XR.+X>.A f E .XY.Y.U.U.H.H.H.K.D.D.C.C.C.V.V.7.7.6.6.",
"6.6.7.7.V.B.C.C.D.D.K.H.H.H.U.Y.Y.T.T.R.R.R..Xj.U f ) $X.XoXoXoXoXoXoXoXoX.X.X!.} P n d R.T.T.Y.Y.U.H.H.K.K.F.D.C.C.B.V.8.7.6.6.",
"6.7.7.V.B.B.C.D.D.F.K.H.H.H.Y.Y.T.T.R.R.R.R..Xj.K a S R.$XoXoX$XoXoX+XoXoXoX+Xr.U P m p U.R.T.T.Y.Y.U.H.H.K.K.D.D.C.B.V.V.7.7.6.",
"6.7.7.V.B.C.C.D.D.K.H.H.H.U.Y.Y.T.T.R.R..X.X.Xf.K i l S.&X@X$X@X$X@X$X$XoX%XE.| L L m > C.oXT.T.Y.Y.U.H.H.H.K.D.D.D.C.B.V.B.7.6.",
"7.7.V.V.C.C.D.D.F.K.H.H.U.Y.Y.T. XR. X.X.X.X+Xt.Y s y ( &X-X&X%X%X%X%X%X$XOX&.P J D K u 7.@XR.R.T.Y.Y.U.H.H.K.F.D.D.C.B.V.V.7.6.",
"7.7.V.V.C.Z.D.D.F.H.H.H.Y.Y.T.T.R.R.R..XoXoX$X2.J g i l :.I.Y.OX>X;X-X&X:X0.U L D k J s ~ %XR.R.R.T.Y.Y.H.H.H.K.D.Z.C.C.B.V.7.7.",
"7.8.V.B.C.Z.D.F.K.H.H.U.Y.T.T.R.R.R..XOXoXoX%X*.B J K D J J L ( 4.:.S._.I.P H J S k F f ! %XR.R.R.T.Y.Y.U.H.H.K.K.A.Z.C.C.V.V.7.",
"7.V.B.C.C.D.A.K.H.H.U.Y.Y.T.R.R..X.XoXoXoX$X]._ J &.$.P L P L L J J J L P M j L g l S g ! &X.X.XR.R.R.Y.Y.H.H.H.K.D.D.C.C.B.8.7.",
"7.V.B.C.C.A.F.K.H.U.U.Y.T.R.R..X.X.XoXoXoX-X2.Y &.&.&._ L L L L P L P b m g D j t i j g ~ ;X.X.X.XR.R.T.Y.U.U.H.K.F.D.C.B.C.V.7.",
"B.V.C.C.D.D.K.H.H.H.Y.T.T.R.R..X.X.XoX@X-X_.X.&.&.&.#.P L L L L P L P D a j P k a > j f 6.&XOX.XOXR.R.T.Y.Y.U.H.H.K.D.D.C.B.V.7.",
"V.B.C.Z.D.D.K.H.H.U.Y.T.R.R..X.XOXoX$X%X).*.$.&.$.$.[ D D P L L L L L P m b P j i p D s C.&XoXOX.X.XR.R.T.Y.U.H.H.K.F.D.C.C.V.V.",
"V.C.C.D.D.K.H.H.H.U.Y.T.R.R..X.XoX$X%Xp.#.$.&.&.&.&.] B D P L P P L L L L D P f > s P d Y.&XoXoX.X.XR.R.T.Y.U.H.H.H.K.D.Z.C.B.8.",
"V.C.C.D.D.K.H.H.U.Y.T.R.R..X.XoXoX%XE.#.&.&.$.&.$.&.I B L L P P L L L L P J m t i S M d $X%X$XoXoX.XR.R.T.Y.Y.U.H.H.K.D.D.C.B.V.",
"V.C.C.D.F.K.H.U.U.Y.T.R.R..X.XoX$X%Xy.$.&.#.&.L [ } D D P ] &.] L L L L L P h s g P D g T.-X$X$XoX.X.XR.R.R.Y.U.U.H.K.D.D.C.C.V.",
"V.C.Z.D.K.H.H.U.Y.Y.T.R..X.XoXoX%X_.$.#.#.%.[ k _ [ D D U &.&.&.U L L L L L P J L L D V q.>X%X$X+XoX.XR.R.T.Y.Y.U.H.H.F.F.Z.C.V.",
"B.C.D.D.K.H.H.U.Y.T.R.R..X.XoXoX-Xj.&.f.-.1 @ l _ P D H ] &.&.} P P L L L L L L P H S F o.>X%X%X$XoX.X.XR.R.T.Y.U.H.H.K.D.D.C.C.",
"C.C.D.D.K.H.U.Y.Y.T.R..X.XOXoX$X-Xt.(.eX0.6 $ 1 Y L L L [ &.&.%.L L L L L L L L L J S B L _.;X%X$XoXoX.X.XR.T.T.Y.H.H.K.F.D.C.C.",
"C.Z.D.F.K.H.H.U.Y.T.R.R..XoX$X%X%Xr.5X0XR.9 O 2 Y L P P ] -.} N P L L L L L L L L L b S Z q.,X%X%X$XoX.X.XR.R.T.U.U.H.K.F.Z.Z.C.",
"C.D.D.K.H.H.U.Y.T.R.R..X.XoX$X-X).^.tX2X9.r   E [ V O.X.T } 3 % - P P P P L P L P P S S J 0.,X%X%X$XoX.X.XR.R.T.Y.U.H.H.K.D.C.C.",
"C.D.D.K.H.H.U.T.T. X.X.XoXoX$X%X=X5XtX}.' w 7 <.P O.g.) B , c.w   4 U V V J L L J L L D J :.,X&X%X$XoXoX.X.XR.R.Y.U.H.H.K.D.D.C.",
"C.D.D.H.H.H.Y.Y.T.R..X.XoX@X%X%X*X0XtX'.#.;.j.+.<./.t.J y = N.. X & J 2.a.~.2./ j...J J J  .;X&X%X%X$XoX.X.XR.T.Y.Y.H.H.K.D.D.C.",
"C.D.D.K.H.H.Y.T.R.R..X.XoX@X%X&X3XqXtX(.} |.i.<.k.k.,.U h * M.# O c L 4XyXtXeX*X4X[.L L L { ;X;X&X%X$XoX.X.XR.R.T.Y.H.H.K.F.D.C.",
"C.D.F.H.H.H.Y.T.R.R..XOXoX$X%X&X5XeXeX4X|.k.i.k.i.k.O.{ ] s 0 9 8 J 2.tXqXeXeXtXeXeXo.J L  .;X;X&X%X$XoX.X.XR.R.T.Y.U.H.H.F.Z.C.",
"Z.D.F.H.H.U.Y.T.R.R..XoX$X%X&X&X5XeXtX6XG.>.x.x.i.k.y.y.X.Y L ` J / 5XtXeXeXeXeXeXtX:.J L ( ;X;X&X&X@XoXoX.X.XR.T.Y.U.H.H.K.D.Z.",
"Z.F.K.H.H.U.Y.R.R.R.OXoX$X%X&X&X5XeXwXv 5 9 8 >.x.i.i.k.X.V J C  .*XtXeXeXeXeXeXeXtX~.J L P &X>X;X&X%X$XoX.X.XR.T.Y.U.H.H.K.A.Z.",
"Z.D.K.H.U.U.Y.T.R..X.XoX$X%X&X*X1XrXm.  X O . & =X#Xk.i.k.`.`.q.4XyXqXeXeXeXeXeXqXtX0.Z P L ).,X;X&X%X$XoX.X.XR.T.Y.Y.H.H.K.Z.Z.",
"D.D.K.H.H.Y.Y.T.R.R..XoX%X%X&X*X#XyXm.  X   X   7XyX#Xk.Q.yXtXyXtXeXeXeXeXeXeXeXeXtX~.Z P J w.,X&X&X%X@X+X.XR.R.T.T.Y.U.H.K.D.D.",
"D.D.H.H.U.Y.T.T.R..XOXoX$X%X&X1X#XaX8X* . o . % 9XsX3X'.Q.qXqXeXeXeXeXeXeXeXeXeXeXtX0.V P J  .>X;X&X%X$XoXOXR.R.T.Y.Y.H.H.K.A.D.",
"D.D.K.H.U.Y.T.R.R..XOXoX$X%X&X1X#XaX7Xo . O o w iXsXwX'.^.qXeXeXeXeXeXeXeXeXeXeXeXtX~.J P L / &X;X&X%X$XoXOX.XR.R.T.Y.H.H.K.F.D.",
"D.D.K.H.H.Y.T.R.R..XOXoX%X&X&X1X#XuXP.&   . = b.pXsXaXt.(.5XeXeXeXeXeXeXeXeXeXqXqXeX#XL L P P =X>X&X&X%XoXOX.XR.R.T.Y.H.H.H.F.D.",
"D.D.K.H.H.Y.T.R.R..XoXoX%X&X&X1X1XwXn.e % : W N.pXsXuXr.'.0X2X0XeXeXeXtX0X#X[.'.'.'.o.J P P L _.,X&X&X$X$XoX.XR.R.T.Y.H.H.K.F.D.",
"D.F.K.H.H.Y.T.R.R..X.XoX@X&X&X1X1X6XL.W Q W e b.pXsX^.r.W.2X6XqXeXeXeX4X'.^.'.(.'.Q.P L L P J !.,X&X&X$XoXoX.XR.R.T.Y.H.H.K.D.D.",
"D.F.K.H.H.Y.T.R.R..XoX$X%X&X;X*X1X2X=Xe 6 W ^ v.XX4Xf.t.W.'.6X5XqXeX<X^.(.'.^.Q.'.~.P L L L L E.,X&X&X%X$XoX.XR.R.T.Y.H.H.K.D.D.",
"D.F.K.H.H.Y.T.R..X.XoX$X%X&X;X>X2X4X{.2 o O < ^ t.d.h.h.j.^.'.'.'.{.^.'.'.^.g.Q.'.u.L L L L L t.&X;X&X%XoXoX.XR.R.T.Y.H.H.K.D.D.",
"D.F.K.H.H.Y.T.R.R..XoX$X%X&X;X*X1X3X{.c 5 < + & E 0.R c 3 4.'.'.'.^.'.(.z.f.s.'.E./ L L P D L r.=X-X&X%X$XoX.XR.R.T.Y.H.H.K.D.D.",
"D.F.K.H.H.Y.T.R.R..XoXoX%X&X;X*X1X1X2Xw.R 7 8 5 * ; ; 8 ;.f.^.'.'.'.^.f.t.f.^.'.W.P L P J b L { [.:X%X$XoXoX.XR.R.T.Y.H.H.K.F.D.",
"D.F.K.H.H.Y.T.R.R..XOXoX%X&X;X&X1X1X2XW.4.! e.e.R ! f.h.g.s.^.'.(.'.l.s.s.j.'.'.(._ J L B D L X.'.:X%X%XoXoX.XR.R.T.Y.H.H.H.F.D.",
"D.F.K.H.H.Y.T.R..X.XOXoX$X&X;X;X1X3X#Xf.f.f.s.g.g.g.s.s.t.f.'.'.^.Q.f.s.W.(.(.'.u.L P D k L L { ~.-X%X$XoXoX.XR.R.T.Y.U.H.K.D.D.",
"D.D.H.H.H.U.T.R.R..XOXoX$X%X&X>X^.'.l.t.s.s.s.s.s.t.s.s.j.^.'.'.(.f.s.f.W.'.'.~./ L L k m L L ] ^.;X%X$XoXOX.XR.R.T.Y.H.H.F.D.D.",
"D.D.K.H.H.Y.Y.T.R..X.XoX$X%X&X:X`.r.s.s.s.s.s.s.s.s.s.W.'.'.'.^.j.s.f.s.W.'.'.<.J P D k J P L @.Q.;X%X$XoX.X.XR.T.Y.Y.H.H.H.D.D.",
"D.A.K.H.U.Y.Y.T.R.R..XoX$X%X;X>X=Xr.f.s.s.f.s.s.s.z.Q.(.'.'.(.f.s.s.s.f.^.'.'.O.P J k k D L / s.j.%X%X$XoX.XR.R.T.Y.Y.H.H.K.D.D.",
"Z.F.K.H.H.Y.Y.T. X.X.XoX$X%X&X>X].*.@.g.s.f.s.s.s.z.'.'.'.'.W.t.f.s.t.^.'.'.E.<./ z k k H L { s.f.%X%X$XoX.X.XR.T.T.Y.H.H.K.F.Z.",
"Z.Z.K.H.H.U.Y.T.R..X.XoX$X%X%X>X~.r.I O.f.s.s.s.s.s.f.Q.^.W.f.s.s.s.^.^.W.'.^.3.D k k b J P 1.f.f.%X%X$XoX.X.XR.T.Y.U.H.H.K.A.Z.",
"C.Z.F.H.H.Y.Y.T.R.R..XoXoX$X%X&Xj.r.#.S 1.g.t.s.s.s.t.t.f.t.s.s.s.f.^.W.l.'.'.3.D S k D / 1.f.r.2.;X$XoXOX.X.XR.T.Y.J.H.H.D.D.C.",
"C.D.F.H.H.U.Y.T.R.R..XOXoX@X%X%Xf.t.*.[ S t.g.f.s.t.f.s.s.g.g.g.r.r.f.^.^.'.'.^.o.V k V ..f.f.r.o.&X@XoXOXOXR.R.T.Y.U.H.K.F.D.C.",
"C.D.F.K.H.H.Y.Y.T.R..X.XoX$X%X&Xj.s.*.$.I k  .t.g.f.t.t.t.@...+.&.s.W.(.'.'.'.'...b B { 1.f.g.1.' @X$XoXOX.XR.R.T.Y.U.H.K.A.D.C.",
"C.D.D.K.H.U.Y.Y.T.R..X.XoX$X%X%Xf.f.r.$.&.I k x G K S S S l S } *.j.(.Q.(.(.'.3.V b X.f.f.t.g.X.L oX$XoX.X.XR.T.Y.Y.U.H.K.D.Z.C.",
"C.Z.A.K.H.H.U.Y.T.R..X.XoXoX%X].s.s.s.*.$.*.F k k k k k k S } &.&.j.f.s.j.f.^.{ / @.g.s.s.s.g.{ L _.$XOX.X.XR.T.Y.U.H.H.K.F.D.C.",
"C.C.D.F.H.H.U.Y.T.R.R.OX.XoX$X_.s.s.f.r.#.&._ k k k k k L #.$.*.f.t.s.f.t.s.f.t.s.g.j.(.^.f.f.] P _.$X.XOXR.T.T.Y.U.H.H.F.D.Z.C.",
"C.C.D.K.K.H.H.Y.Y.T.R..X.XoX$X_.s.s.f.f.=.$.#.D k k k S &.$.&.s.f.f.s.s.s.s.s.f.s.l.'.'.'.j.s.] L _.+X.X.XR.T.Y.Y.H.H.K.F.Z.C.C.",
"C.C.D.D.K.H.H.Y.Y.T.R..X.XOX+X_.t.f.s.s.s.&.$.#.P k z _ &.*.s.s.s.s.f.s.s.f.f.s.j.'.'.'.'.j.s.' J I.$X.X.XR.T.T.Y.H.H.K.D.D.C.B.",
"B.C.D.D.K.H.H.U.Y.T.R.R..X.X+X!.t.f.s.s.f.r.&.&.| k G #.&.t.f.s.s.s.s.s.s.s.s.f.^.'.'.'.'.j.f.] Z S.+XR.R.R.T.Y.U.H.H.K.D.D.C.B.",
"V.C.Z.D.F.H.H.U.Y.Y.T.R..X.X+XE.s.u.s.f.s.f.&.$.} k _ &.=.f.s.f.s.s.s.s.s.s.s.l.'.'.'.'.'.j.X.P J S.+XR. XT.Y.Y.H.H.H.K.D.D.C.B.",
"V.C.C.D.D.K.H.H.Y.T.T.R.R..X_.f.s.s.f.s.s.f.t.&.#.D #.$.r.f.s.s.s.s.s.s.s.s.W.'.'.'.'.'.(.f./ J L S.+XR.R.T.Y.Y.H.H.K.F.D.C.C.B.",
"V.B.C.D.D.K.H.H.U.Y.T.T.R..X).s.s.s.s.s.s.s.f.&.#.} &.&.t.f.s.s.f.s.s.s.j.Q.'.'.'.'.'.'.W.X.J L J S.oXR.T.Y.Y.U.H.H.K.D.D.C.C.V.",
"V.B.C.Z.D.K.H.H.H.U.Y.T.R.OXR.f.s.s.s.s.s.s.f.*.$.&.$.*.f.s.s.s.s.s.s.j.'.'.(.'.'.'.'.'.t.P L L / T..XR.T.T.U.U.H.H.K.D.D.C.B.V.",
"V.V.B.Z.D.D.K.H.H.U.Y.T.R.R..X!.s.f.s.f.s.s.f.t.$.&.&.r.f.s.s.t.f.j.^.'.'.'.'.'.'.'.`.'.<.J P J w..XR.R.T.Y.U.H.H.K.D.D.C.C.B.V.",
"8.V.C.C.D.D.K.H.H.H.U.T.T.R.R..Xa.t.f.s.s.s.f.r.$.$.=.f.f.s.s.f.^.'.'.'.'.'.'.'.'.'.'.E.' L J  ..XR.R.T.Y.Y.H.H.H.K.D.D.C.C.V.V.",
"7.V.C.C.Z.D.F.K.H.U.U.Y.Y.T.R..XR.u.s.f.s.s.f.r.&.*.s.f.s.s.f.(.'.'.'.'.'.'.'.'.(.'.Q.P L L P T.OXR.T.T.Y.U.H.H.K.K.D.C.C.C.V.7.",
"7.V.B.C.C.Z.A.K.H.H.H.Y.Y.T.R.R.OXT.u.d.s.f.s.s.r.s.f.s.s.s.z.'.'.'.'.'.'.'.'.'.(.'.2.D P L S.oXR.R.T.Y.Y.H.H.H.K.D.D.C.B.V.V.7.",
"7.V.V.C.C.Z.D.D.K.H.H.U.Y.T.T.R.R..XT.u.s.s.s.s.f.s.s.s.f.j.(.'.'.'.'.'.'.'.'.'.'.(.<...L q.+XR.R.T.Y.Y.U.U.H.K.D.D.Z.C.B.V.7.7."
};
