/* XPM */
static char *e875a461a2434d9de24c89d400d304d0Rz5SIlmuNh69gjqz[] = {
/* columns rows colors chars-per-pixel */
"64 64 256 2 ",
"   c #330C0B",
".  c #3E211F",
"X  c #51362F",
"o  c #643B3A",
"O  c #422C14",
"+  c #564636",
"@  c #68533B",
"#  c #6D4D36",
"$  c #75411A",
"%  c #653757",
"&  c #5B2668",
"*  c #693769",
"=  c #653073",
"-  c #55245B",
";  c #5D5C56",
":  c #5C5549",
">  c #654B46",
",  c #67584A",
"<  c #745B47",
"1  c #685C53",
"2  c #775C58",
"3  c #724758",
"4  c #786249",
"5  c #64635B",
"6  c #6D695C",
"7  c #6B6457",
"8  c #736C5C",
"9  c #7C6C5B",
"0  c #776656",
"q  c #7B715E",
"w  c #774B6A",
"e  c #6B6C63",
"r  c #6C6C67",
"t  c #756D63",
"y  c #7B6962",
"u  c #757164",
"i  c #7B7264",
"p  c #74756B",
"a  c #7B756B",
"s  c #7D796D",
"d  c #7F7A67",
"f  c #7C7972",
"g  c #6F716B",
"h  c #946037",
"j  c #846C59",
"k  c #87735B",
"l  c #947858",
"z  c #8E6D4B",
"x  c #A97752",
"c  c #846B65",
"v  c #837565",
"b  c #847B6D",
"n  c #8B7C6C",
"m  c #897668",
"M  c #957B67",
"N  c #847D72",
"B  c #8B7E73",
"V  c #8A7873",
"C  c #967C76",
"Z  c #926A74",
"A  c #A37C7A",
"S  c #855969",
"D  c #7D8077",
"F  c #B1855A",
"G  c #86816E",
"H  c #8B816F",
"J  c #94826C",
"K  c #9B8367",
"L  c #868274",
"P  c #8B8373",
"I  c #8D8976",
"U  c #8B857A",
"Y  c #8D8A7C",
"T  c #878278",
"R  c #918574",
"E  c #918877",
"W  c #93857A",
"Q  c #9C847D",
"!  c #938C7B",
"~  c #9A8C7C",
"^  c #9B8674",
"/  c #96917E",
"(  c #9A937F",
")  c #A78968",
"_  c #B8916A",
"`  c #A48A78",
"'  c #A89479",
"]  c #B69979",
"[  c #B48C67",
"{  c #BDA27A",
"}  c #C69B76",
"|  c #C9956B",
" . c #CBA37B",
".. c #C8A576",
"X. c #D7A579",
"o. c #D2A66C",
"O. c #E4AB79",
"+. c #E9B678",
"@. c #F1B87C",
"#. c #C6935C",
"$. c #73398A",
"%. c #662F83",
"&. c #7C458F",
"*. c #834F91",
"=. c #A17885",
"-. c #965EB3",
";. c #AB74C9",
":. c #8C8A81",
">. c #948D81",
",. c #9C8C83",
"<. c #9B8682",
"1. c #969283",
"2. c #9A9383",
"3. c #9C9A85",
"4. c #9D9489",
"5. c #9B988B",
"6. c #9C9993",
"7. c #A38B84",
"8. c #A78985",
"9. c #B68A89",
"0. c #A39384",
"q. c #AC9985",
"w. c #AC938B",
"e. c #A49B8C",
"r. c #A99889",
"t. c #B39C85",
"y. c #B29C8B",
"u. c #BA9B87",
"i. c #AB9C93",
"p. c #A99992",
"a. c #B49C94",
"s. c #B79A97",
"d. c #A8A48B",
"f. c #BCA38B",
"g. c #B6A387",
"h. c #ACA493",
"j. c #ACA898",
"k. c #B4A394",
"l. c #BBAB95",
"z. c #B4A49A",
"x. c #BBA49C",
"c. c #B4AC9B",
"v. c #BCAB9C",
"b. c #B7A794",
"n. c #B5B19D",
"m. c #BCB49D",
"M. c #BDB296",
"N. c #BCACA2",
"B. c #BAA9A3",
"V. c #BBB4A3",
"C. c #BDBAA4",
"Z. c #BCB4AA",
"A. c #BAB7A6",
"S. c #BEB4B2",
"D. c #ADABA2",
"F. c #C39D98",
"G. c #C1928C",
"H. c #C2A58C",
"J. c #C7A888",
"K. c #D4AC85",
"L. c #CCB28C",
"P. c #D9B38C",
"I. c #C4AD94",
"U. c #C6AA98",
"Y. c #CDB49B",
"T. c #C8B499",
"R. c #D7B898",
"E. c #D8A994",
"W. c #E7B687",
"Q. c #E6BA98",
"!. c #EFB78C",
"~. c #C399A1",
"^. c #C5ABA6",
"/. c #C3B3A3",
"(. c #C4BBA4",
"). c #CBBBA3",
"_. c #C4B4AA",
"`. c #C3BCAB",
"'. c #CBBBAB",
"]. c #CAB4A7",
"[. c #D3BCA3",
"{. c #D2BCAC",
"}. c #D8BAA7",
"|. c #C4BCB3",
" X c #CBBCB3",
".X c #C8BCBA",
"XX c #D1BEB3",
"oX c #D7B8B5",
"OX c #D6A5A5",
"+X c #EAB9A8",
"@X c #E8C29C",
"#X c #F3C186",
"$X c #C5C1AD",
"%X c #CBC3AB",
"&X c #CCC5A9",
"*X c #D8C4AA",
"=X c #CCC4B3",
"-X c #CEC9B5",
";X c #CBC3BB",
":X c #CCCBBB",
">X c #C6C4B5",
",X c #D3C3B4",
"<X c #D3CBB4",
"1X c #D4C4BB",
"2X c #D3CCBC",
"3X c #DCCBBC",
"4X c #DBC6B7",
"5X c #D6D1BC",
"6X c #DAD3BD",
"7X c #D7D0B4",
"8X c #E7C7A8",
"9X c #FBCAA6",
"0X c #E5CBB9",
"qX c #E6D2BD",
"wX c #F5D0B6",
"eX c #CDC7C2",
"rX c #D4CCC4",
"tX c #DBCCC3",
"yX c #D5CCCB",
"uX c #DACDCB",
"iX c #D3C5C2",
"pX c #DBD4C2",
"aX c #DED9C3",
"sX c #DCD3CC",
"dX c #D7D3C9",
"fX c #DCD5D2",
"gX c #DDD9D3",
"hX c #D5D0CA",
"jX c #E7CAC5",
"kX c #E3D4C4",
"lX c #E1DBC5",
"zX c #E4D4CB",
"xX c #E3DCCA",
"cX c #EBDCCD",
"vX c #EBD5C5",
"bX c #F3D9C9",
"nX c #E4DAD4",
"mX c #EBDDD4",
"MX c #E4DDDA",
"NX c #E6D9D4",
"BX c #F9DBD8",
"VX c #EAE2CD",
"CX c #F3E3CD",
"ZX c #F9E6CE",
"AX c #ECE2D4",
"SX c #EBE2DB",
"DX c #EAE5DA",
"FX c #F3E5D4",
"GX c #F3E5DA",
"HX c #F4E9DC",
"JX c #F8EAD7",
"KX c #F6F1DE",
"LX c #EAE4E2",
"PX c #F9ECE1",
"IX c #F5EBE1",
"UX c #FCF5E4",
/* pixels */
"b G P P I E E E E E ! / / 1.3.3.d.d.d.h.c.V.V.V.B.N.Z.V.V.V.C.C.C.C.$X$X%X&X).).).).(.m.c.j.j.j.c.h.h.l.m.%X%X%X%X%X%X<X5X5X<X<X",
"G G P P I E E E E ! ! / / 1.3.3.d.d.d.h.c.V.V.V._._._.(.V.m.m.C.=X$X`.$X&X&X*X*X).).(.m.c.c.j.j.c.n.m.%X<X<X=X%X5X%X(.<XlXVXlX<X",
"G G P P I E E ! E ! / / 2.1.2.3.e.d.d.d.g.l.l.l.l.l.l.l.l.l.M.T.m.m./.).&X&X(.T.%X'.(.V.n.c.n.n.n.m.%X<X<X<X%X%X<X<X<X5XlXCXCXxX",
"G G P P I I E E E ! / 2.2.2.2.( ' d.g.g.g.g.g.] ' ' ' ' ] g.f.I.I.Y.).*X*X).(.(.%X$X(.V.n.n.m.C.(.%X-X<X<X%X<X<X-X5X6X6XxXFXFXVX",
"P P P P P I I I I ! / ( 2.2.2.( ' g.f.g.{ ] ] _ ) ) [ _ ] ] J.J.L.Y.[.[.T./.`.=X>X$XC.C.m.m.(.(.-X2X6X6X2X<X5XpXaX5X<XpXJXUXVX-X",
"P P P P P P I I I ! ! / / ( 2.2.' g.I.J...{ .......... ... . . .} L.R.*X*X).`.>X>X>X$XC.C.(.$X%X<X6XlXlXaX6X6XpXlX6X6XlXAXAXaX-X",
"E E I P P I I I I E ! ! ! ~ 0.0.f.L.L.L.....o.o.+.+.W.W.W.K.X. .} K.R.*X*X,X-X:X:X:X>X$X$X&X&X<X<X5XaXlXlXpXpXpX5X6XxXVXaX5XaXAX",
"! ! E I I I I I I E E ! ~ ~ 0.q.I.R.R.K...o.o.O.@.#X#X#XW.O.X.X.| _ [ ) ] l.$X:X:X:X:X>X%X=X<X7X5X6XpXaXaXaXlXlX6X<X5XaXlXpXVXUX",
"! ! I I I I I I G ! 2.! R ~ k.{.8XP.] } X.o.o.+.+.@.#X!.W.O.X.o.| | _ ) K q.(.2XrXrX:X:X2X7X7X<X5X5X5X6XpXpX5X2X-X2X=X=XxXUXDX-X",
"~ ! ! ! / ! Y I / I b P 0.v.'.}.H.} _ _ | o.o.+.+.+.@.@.!.W.O.| | X.K.J.] u.T.2X:X:X:X-X-X<X7X7X6XpXpX6X5X2X-X-X=X=X-X5XxXVXxXpX",
"R E ! / ( / ! I ! P b ~ a.k.0.M z F [ F F F #.o.O.O.O.O.W.!.X.#.x F  .K. .' q.m.`.$X$X$X$X%X=X<X2X5XpX5X:X=X>X>X=X`.-XaXaX5X5XVX",
"b n H I ! ! Y I L I ! 2.~ m , X # x _ [ x h h F X.+.!.!.!.!.X.#.h x | P.K.] t.l.m.n.V.C.C.C.`.`.$X=X2X-X=X$X$X>X=X$X-XxXVXxXVXKX",
"v v v b P I I I I E ! E n j 2 < l [ } _ z $ h x K.!.9X9X9X9X!.X.F F _ K.R.P.L.Y.I.l.l.n.V.V.V.Z.A.`.>X>X$X`.`.$X-X=X:XaXHXUXUXUX",
"n n b b b L L L I I I R ~ ` 8.' }  . ._ z $ h | W.Q.9X9X9X9X9XQ.X.} }  .P.R.R.R.R.I.b.v.V.V.V.Z.V.C.`.$X`.C.C.C.`.$X$X:XVXUXUXHX",
"R P n G G L L L P P R ~ r.a.x.H.P.W.K.} x x [ Q.+X+XQ.Q.Q.Q.Q.9X9X@XQ.Q.@X8X8X8X8XI.t.y.h.j.D.A.D.n.V.A.A.V.V.V.V.V.V.C.-XpXaXpX",
"R P P P P I I I I I ! ~ ' t.U.E.P.Q.P.K.} J.Q.wXwX+XE.E.E.E.Q.9XwXwX8X@X@X8X8X8X8XI.' ~ 4.e.j.D.j.j.j.n.n.V.n.c.n.n.V.A.C.`.>X-X",
"W P B b b P P P G H J J M ) H.P.W.W.W.P.P.R.8XwX}.}.F.9.9.G.OX+XbXbXbXbX0X0XwXbXqXT.Q m U 6.6.5.5.d.d.d.h.c.n.j.c.c.n.n.C.$X=X%X",
"Q W B b b L P P H R J M K ] L.R.W.W.W.Q.8X8XqXvXvXoX^.9.A 9.OXjXbXBXBXbXvXvXvXvXvX/.W b U 1.6.5.1.3.3.3.3.d.d.d.h.h.j.j.c.m.C.C.",
"! R n b b b G G H H m k M u.R.8XQ.Q.Q.8XwXbXbXjXoXoX^.9.9.9.OXoX0XjXbXbXbXbXbXvX4Xv.0.>.1.1.:.:.I Y ! ! / 1.2.1.3.3.e.d.h.c.V.C.",
"R B b d a d d d d b v 0 k t.}.wX@X@X@X8XwXbXjX4X{.].~.s.9.8.9.F.^.'.4X0X0X0X0X0XXX_.N.Z.Z.p.U f N L L I Y Y ! ! ! ! ! 2.4.3.e.h.",
"R n v i t u u u i b v 7 4 M I.*X8X8X8X8X0X0X{.U.s.` c > o o o 3 m 7.B.'.{.{.{.{.,X,XtXNXsXZ.1.s N b L T U Y Y ! >.Y Y I G a a d ",
"B n v i i u u u u d i 7 , 0 ^ f.*X8X8X*X{.].a.7.2 o .         . X 2 ,.x.].'.XXXXtXzXAXHXSXiXj.:.L L N L T T U Y Y I T L a 7 5 6 ",
"P n b d d a a u u u u i i v ! y.).[.{.)./.k.W y X O . X X o o o > y <.a._.XX1XtXmXGXIXIXHXnX|.h.Y L N N N b N U L N L L s 6 5 6 ",
"R H n b b b s a s u a Y 5.e.j.V.v.T./.v.z.r.v > X X X > c Z C C <.0.i.z./. X1XiXNXHXPXHXPXHX2Xc.>.T N b s a s N L N N T p 5 ; 5 ",
"J P P P N b s a s a Y c.S.>X`.V._.V.V.z.p.Q v y 0 V 7.7.8.a.F.U.s.i.p.z._. XiXzXHXPXPXHXPXJXpX`.! s a b b b N b f f f f f 5 : ; ",
"R P R P P N N s T N 5.Z.;X:X=X`.C.V.c.z.e.>.V y V B W <.8.w.8.8.W W <.i.N.XXzXHXPXPXHXJXJXFXqX'.>.b i s i a s s f N f f p 5 ; 5 ",
"R R R R I T T L N N 5.|.rXdXdX2X=X XZ.c.i.,.V i 0 7 8 c V V V m c B 0.B.XXtXNXmXGXGXFXcXcXvX4X/.0.b i i t t s s f N a p p 5 ; 5 ",
"R R E E E U U U b N i.;XdXaXxXpXtX2X XZ.z.,.m 0 1 , 1 1 , > > 2 v W z.1XNXmXNXzX1XtXkXqXqXqX*XT.e.H i i 8 t s a s s a p p 5 ; e ",
"I I R E E I U P W >.c.2XlXpXpX2X1X,X=X'.v.r.n 9 , > > > , 1 y V 7.w.x._. X X_./.].XX0XqXqXqX8XY.q.H i i 8 t i t u a a p p 5 5 e ",
"P I R R W I P P W ~ v.1XpX5X3X<X,X1X1X,X'.N.i.0.m 0 1 0 V Q ,.0.Q <.<.C B Q r.a.XX3XvXqX0X8XR.L.q.P q q 8 8 8 8 u a a s p e 5 p ",
"P I R R W R R B B W b.,X3X<X<X<X,X,X,X{.].]././.v.a.7.,.0.p.4.W c C Q B v C i.].XX4X4X}.R.R.R.U.l.^ v q 8 8 8 8 u a a p p e r D ",
"I I E E R R R R Q ` v.4X4X*X*X*X'.'./.x.a.y.z.v.N._._.B.B.B.z.p.s.{.3X_.7.C Q w.b.v.I.f.H.Y.*X*X).0.n q 8 8 u 8 u a p p p r g :.",
"I I P I R R R n m ' I.[.[.R.R.[.].].].x.a.s.x.x.^.^.s.w.7.B ,._.jXBXBXjX].w.` 7.r.y.t.g.f.I.[.*X,X/.2.i 8 q q 6 u u p p g g p f ",
"I P P P R R J M M ` f.Y.R.Y.J.f.y.k.x.x.B.B.s.w.w.8.<.C C V Q _.BXBXjXjXjXoXs.8.y.a.f.l.I.).*X3X3X,Xk.n 8 q q 6 e e g p g e e r ",
"P P P P R R J M m K ' H.Y.Y.J.u.0.k.^.^.x.w.7.C 2 2 2 c <.Q Q w.^.oXoX^.^.s.8.7.a.k.b.I.].*X3XqXqX4Xv.E 9 8 8 6 6 6 e p g e ; ; ",
"P P B P P R n m j k M ] I.U.J.u.y.U.].U.w.7.<.7.w.C c c C Q m 2 > y V C Q 7.w.x.a.k.v./.'.,XqXkX3X3X].0.i 7 6 8 6 6 e g e 5 1 ; ",
"T T P P P H m v j j k ` u.f.u.t.f.x.b.y.8.s.^.oXjXoXw.c c C C 0 > > , y 7.z.x.N././.].'.3XkXkXvXqXqX,Xk.n 8 7 6 8 6 7 6 6 5 1 1 ",
"T T P P P H n v 9 0 k ` u.f.f.f.I.y.` ` w.].jXjXoXtX^.C j C 7.V c y y C N.1XXX X4X3XtXlXcXcXAXcXkXvX3X/.~ i 7 7 6 7 7 7 6 7 1 : ",
"L N b P P P n m 9 4 j ` f.H.f.f.t.0.^ C 8.s.^.^.^.oXoXs.V m C m c B ,.z.1XcXGXPXmXmXmXFXGXGXFXAXcXcXkX=Xh.n 6 1 7 1 7 8 8 7 > + ",
"N b b P I R P n k 0 j ^ t.t.' ` M ^ Q C C C C ` s.s.x.s.Q Q w.,.7.h.N.=XzXAXGXPXHXHXHXHXHXHXAXcXCXCXCX6X/.( d 6 1 1 7 i v 0 @ + ",
"N N N P P P P n 9 0 j ^ q.t.' ` ^ ^ ~ Q Q C V m Q 7.7.w.w.w.w.a.N._.1XsXmXSXHXHXHXGXAXGXPXUXPXFXCXFXCXkX,Xz.P 1 7 , , 0 v ^ k + ",
"N N B T I I P P n 9 9 n 0.y.q.0.` 0.0.0.7.7.7.7.Q 7.w.x.^.x.k.k.'.>XrXxXAXHXHXHXGXAXAXGXPXUXPXJXCXCXCXvX3X(.2.9 , , 9 M J J K K ",
"L L T I Y E W P P 9 9 R y.l.x.b.k.k.k.b.z.z.x.B.a.s.B. XiX1X'.N.>X2XsXnXSXSXSXSXmXmXmXAXFXGXGXFXCXCXVXvXkX=Xr.v 7 1 v ' K k z l ",
"U U U ! ! ! ! W B v v ,.v.'.].].'.`.'.'.|. X X.X.X X.XiXsXsX2X|.|.eXdXnXnXmXAXAXmXmXmXmXcXcXcXcXCXCXVXcXxX1Xh.n 7 > 4 K ) l 4 # ",
"! ! ! >.2.2.>.! B m n 0.v.'. X,X2X2X2X2XrXrXuXuXuXyXiXiXsXsXeXS.S..XyXsXnXNXmXmXmXmXmXcXcXcXcXcXFXZXFXFXFXkXv.E 0 @ < K H.Y.J.) ",
"2.2.2.2.2.2.,.>.W n n ~ i.v._.=X2XrXhXdXfXnXMXMXnXgXfXfXnXfXeXS.|.;XyXfXfXnXmXSXmXmXmXcXcXcXFXFXCXZXZXJXJXcX'.y.v < < k ] R.8XR.",
"4.2.2.2.2.2.>.! ! N b W p.z.N.`.=X:XhXfXMXSXSXLXMXMXMXMXMXgXhX>X.XiXuXuXsXsXNXmXmXmXcXcXcXcXFXFXCXCXCXCXFXFX4Xv.v 4 @ # 4 K ] ..",
"5.4.4.2.2.1.! E W b b ,.z.V.V.V.>X;XhXgXMXSXSXSXMXMXMXgXgXgXhXeXeXyXuXuXuXuXzXmXGXmXzXzXzXcXcXcXJXJXFXAXFXAX3X'.^ j @ @ @ z [ ] ",
"4.4.4.4.,.>.W U E I P E e.c.n.c.|.|.>X2XsXAXMXnXMXMXMXnXMXMXgXsXyXyXuXfXuXiX1XtXkXzXzXzXNXNXNXzXsXxXAXHXPXGXpX'.g.9 @ 4 l l K ] ",
"4.4.4.,.,.! U U T b d b I 2.e.h.z.N.'. X2XsXmXSXnXMXMXMXMXSXMXfXfXyXuXuXtX1X1X1X1X3XkXzXzXzXsXuXsXgXnXAXHXHXcX3Xy.M < < l ] H.H.",
"4.2.,.>.! W U U T b i t d P 1.e.i.N.|.|.|.;XsXSXnXMXMXMXSXLXLXMXgXfXsXsXtX1X XXX'.,X3XkXsXtXtXuXnXSXIXPXPXJXvX4Xg.^ < # j u.u.M ",
"4.2.>.! W U U U U N s t t a T 1.i.V. X|._.|.rXnXnXMXMXMXSXLXLXMXfXsXsXsXsX2X=X X'.,X3XpXpXtXtXsXSXIXUXUXKXCX6X[.Y.t.m j ` s.A > ",
"4.1.>.Y U U U U T N s t 8 6 a U e.c.|.|.|.;XrXsXsXfXgXgXMXLXLXMXhXyXhXsXsX2X>X'.,X1X3XdXtXrXdXnXSXHXHXFXCXqX*X[.Y.f.8.8.9.=.w o ",
"2.>.>.Y U U U U U N s a t 7 t N e.c.`.|.|.|.>X;XrXhXsXfXMXSXMXgXeXeXeXhXhX2X|.`.;X=X1XrXrX2XrXzXNXGXJXKXZXqXY.g.f.U.^.F.=.3 % % ",
">.Y Y U U U U U U N f s t 7 t s p.c.Z.Z.Z.Z.Z.Z.;XeXyXfXMXSXMXfXeX;X;XeXiX;X|.|. X|.|.2XrX2XiXsXzXmXFXZXCX8XI.' t.U.oX~.Z % % * ",
"Y Y Y U U T T T U N a a t 1 6 a 2.h.N.V.V.V.Z.Z.|.;XrXfXMXLXMXfXyXeX.X;XeX;X;X;X|.Z.|.2XrXiXiXtXzX0X,X[.[.R.L.f.M u.~.=.w * * & ",
"Y Y Y U U U U N s N N i 6 1 7 8 T 2.z.c.z.h.N.`.;X|.|.rXfXfXfXsXgXyX.XS.S.|..X.X.X.X.XiXuXuXiX1XjX4XY.I.Y.L.g.H.M A Z 3 % * = $.",
":.Y U T U L L N U b i t 8 7 1 1 v H ~ e.k.N.N.z.`.Z.|.;XrXdXdXsXrXyXiX.XS.Z.S..X|..X.XiXtXzXtXXX{.}.Y.Y.[.R.u.` F.C S % * &.$.$.",
">.Y U L T L B N U v t t 8 7 1 1 : m p.k.h.z._.'.c.N._.>XiXrXrXtXtX.XZ.Z..XtXuXuXiX;X XXX1X1XXX{.U.H.] ] J.8X}.U.s.S w % & = $.$.",
":.U T L L T T B b v i i 0 , , , @ 0 n ~ y././.k.z.z.N._. X=X=X XtXXX_. XtXmXmXzXzX XN.^.].^.].}.}.H.) l ) H.].U.Z 3 w * & = $.$.",
"U U L B T U P P v v 9 9 0 < , @ m m k 0 M k.{.,X'./.b.k.z.N.V./.{.4X0X0X4X,XXXXX4X].b.f.U.[.[.Y.J.) K M M ` 9.8.w % w * = *.-.-.",
"T T N B T T P n v k 9 9 k J M k < M ' ` ^ q.I.).,X'.l.r.y.b.N./.[.Y.Y.Y.Y.).[.*X[.*XY.g.L.8XR.] ) z l l j j Z Z 3 w w * & *.;.;.",
"N N N B B B b m v J M k m ' g.t.f.t.K 4 @ 4 J q.g.b.k.y.q.k.T.].R.J.] ] L.*X*X*XY.R.J.{ P.8XP.[ [ l l z @ < c 2 % w *.= - = &.;.",
"N N N N B b v i n q.t.M j K g.I.T.*X*X' @ O X @ 9 J 0.q.q.y.b.I.L.L.L.L.R.R.Y.L.L.] ) { R.Q.K. .F z z z # 2 Z w % * w = = & & %."
};
