/* XPM */
static char *be0f6c1e85d541e6b5324f79e322c990gUYkN0ZolH6LDxWs[] = {
/* columns rows colors chars-per-pixel */
"64 64 232 2 ",
"   c #0C0000",
".  c #140100",
"X  c #1A0300",
"o  c #140900",
"O  c #1D0B00",
"+  c #250D00",
"@  c #271300",
"#  c #2B1401",
"$  c #2F1B00",
"%  c #341D01",
"&  c #391D00",
"*  c #371D0C",
"=  c #352102",
"-  c #3C2402",
";  c #3E2903",
":  c #3D240A",
">  c #3D2B0C",
",  c #35280C",
"<  c #3E2C14",
"1  c #432501",
"2  c #432A04",
"3  c #4B2C02",
"4  c #442C0A",
"5  c #4A2D0C",
"6  c #452706",
"7  c #4B320C",
"8  c #483209",
"9  c #513104",
"0  c #53340D",
"q  c #58360E",
"w  c #5C3C0E",
"e  c #492E12",
"r  c #452A18",
"t  c #4D3213",
"y  c #493418",
"u  c #533614",
"i  c #593612",
"p  c #543A15",
"a  c #5B3A15",
"s  c #51361A",
"d  c #553B1A",
"f  c #5B3D1B",
"g  c #623C15",
"h  c #623F1A",
"j  c #693E1C",
"k  c #553C21",
"l  c #563A24",
"z  c #483320",
"x  c #613E20",
"c  c #5C421D",
"v  c #5F481D",
"b  c #5B4216",
"n  c #644213",
"m  c #63421D",
"M  c #6B441D",
"N  c #624B1E",
"B  c #6E4A1D",
"V  c #6D4415",
"C  c #724B1C",
"Z  c #7A4E1B",
"A  c #754A19",
"S  c #6E501A",
"D  c #73511E",
"F  c #7B531E",
"G  c #7B591A",
"H  c #7E601A",
"J  c #5D4322",
"K  c #5F4922",
"L  c #574322",
"P  c #654522",
"I  c #6A4521",
"U  c #644B24",
"Y  c #6B4B23",
"T  c #654D2A",
"R  c #6B4D2C",
"E  c #664429",
"W  c #734D22",
"Q  c #764D24",
"!  c #665025",
"~  c #6B5325",
"^  c #67512B",
"/  c #6B542C",
"(  c #6E592E",
")  c #755122",
"_  c #7C5524",
"`  c #7D5924",
"'  c #73552B",
"]  c #7C562A",
"[  c #735B2D",
"{  c #7D592B",
"}  c #6C5431",
"|  c #6A5838",
" . c #735C34",
".. c #7B5C33",
"X. c #755D3A",
"o. c #775835",
"O. c #77602F",
"+. c #776135",
"@. c #7C6334",
"#. c #76623B",
"$. c #7B643C",
"%. c #7E683E",
"&. c #7D6542",
"*. c #7E6943",
"=. c #7F6B4A",
"-. c #736545",
";. c #7F6A55",
":. c #82551D",
">. c #835D1B",
",. c #87621D",
"<. c #825623",
"1. c #845A25",
"2. c #8A5D25",
"3. c #815629",
"4. c #845C2A",
"5. c #8A5E2A",
"6. c #8A572A",
"7. c #855E30",
"8. c #885F31",
"9. c #915F2C",
"0. c #8B6126",
"q. c #85612C",
"w. c #8B612C",
"e. c #876723",
"r. c #906427",
"t. c #92662D",
"y. c #93692D",
"u. c #866332",
"i. c #8C6432",
"p. c #8C6A35",
"a. c #836B3D",
"s. c #8C6C3B",
"d. c #86673A",
"f. c #926631",
"g. c #946B32",
"h. c #996E35",
"j. c #936D39",
"k. c #8C713D",
"l. c #87773E",
"z. c #997236",
"x. c #94713C",
"c. c #9A723A",
"v. c #A67C3E",
"b. c #836D44",
"n. c #846D4A",
"m. c #856B45",
"M. c #857145",
"N. c #8B7445",
"B. c #8D7847",
"V. c #86714B",
"C. c #8B754C",
"Z. c #8E784E",
"A. c #857A42",
"S. c #927543",
"D. c #997543",
"F. c #957A45",
"G. c #9C7B46",
"H. c #91764C",
"J. c #937B4C",
"K. c #9A7E4C",
"L. c #876F50",
"P. c #867151",
"I. c #8B7453",
"U. c #8E7953",
"Y. c #8F7B5B",
"T. c #937C53",
"R. c #997E51",
"E. c #957D5A",
"W. c #A17944",
"Q. c #A47E51",
"!. c #89803B",
"~. c #8F854A",
"^. c #9C824E",
"/. c #998B49",
"(. c #968155",
"). c #9C8353",
"_. c #9E8856",
"`. c #96825A",
"'. c #9B835B",
"]. c #9E895D",
"[. c #97895C",
"{. c #A4834D",
"}. c #AA8A4A",
"|. c #AE914F",
" X c #A28653",
".X c #A48955",
"XX c #AA8B54",
"oX c #A3865B",
"OX c #A48B5C",
"+X c #AB8D5A",
"@X c #AA8554",
"#X c #B38D5D",
"$X c #AC9254",
"%X c #AC935C",
"&X c #A89459",
"*X c #B29553",
"=X c #B1945C",
"-X c #B1985A",
";X c #BA9957",
":X c #B38F4E",
">X c #9A8362",
",X c #9E8B63",
"<X c #968768",
"1X c #948D73",
"2X c #A38C61",
"3X c #AB8F60",
"4X c #A48D6B",
"5X c #A59364",
"6X c #AA9464",
"7X c #AD9669",
"8X c #AD9B6C",
"9X c #A79569",
"0X c #B59B63",
"qX c #B49B6A",
"wX c #B89864",
"eX c #AC9E79",
"rX c #A89B75",
"tX c #B49F73",
"yX c #B28D60",
"uX c #BCA16B",
"iX c #B5A16E",
"pX c #B8A377",
"aX c #C39E66",
"sX c #C09E70",
"dX c #C3AA7D",
"fX c #C9AC77",
"gX c #D0AD7C",
"hX c #CFB17F",
"jX c #D1B27D",
"kX c #C4A76F",
"lX c #DAB886",
"zX c #E3BF8D",
/* pixels */
"J.). X_. X X{.{.{.}.}.}.v.v.v.}./.~.!.l.A.A.V.V.Y.<X<X;.l @ + % 3 w B W C M B W C C A A A A V V V M C ) ] { 3.3.s.j.D.G.Q.@X+X#X",
"qXqX0X=X=X0X0X=X%XXXXX;XaXaX;XXX&X/.~.~.(.[.,X4XE.| , X . O # : u n Q ] { 3.8.i.i.u.8.i.i.i.i.i.3.3.3.3.3.{ ] ] ) ) ) ) ) Q W C ",
"*X*X$X$X$X-X-X%X0X0X0X=X%X%X%X6X5X5X5X5X`.&.L 4 O X X # : y s d g M C ) ) ) ) ) 4.3._ 4.1.5.4.4.8.5.8.8.8.u.u.u.u.u.8.4.3.{ ] _ ",
"|.*X*X*X*X-X%X&X^.&X7X8X6X5X6X8XeX>X-.L > @ . . . # t J P P T ' ] ] ] { { ] _ ) 3._ _ _ <.4.<.<._ { { 3.8.u.i.p.u.i.i.p.p.s.s.s.",
"*X;X;X*X$X$X&X&XqX5X,X5XrXeXrX<X| z @ . . X # * k f f f P ~ ' ' ] ] ] 4.4.8.5.4.5.4.4.4.4.4.4.1.4.4.4.4.4.4.5.5.` 4.4.4.4.4.4.1.",
"|.*X*X|.}.&X%X6X8XeXpXeX<X| , o   . . + * r r l f J I W { 4.{ D ) ) ) ) _ ` _ _ _ _ _ <.4.1.1.1.4.4.4.4.4.4.4.4.q.q.w.5.5.5.4.4.",
"%X-X%X-X0XiX8X5X8X[.| > o     o @ # * r s l l E R o...] D F F F { { { 4.4.4.4.1.1.1.1.4.5.w.w.w.1.4.4.4.5.5.5.4.4.5.q.w.w.w.w.w.",
"6X9X6X8XtX8X`.*.; # .   o # , : e s k T E P E R Y Q ) Q _ 1.1.<.F _ _ { 4.1.1.4.1.1.1.1.1.1.1.<.4.5.w.w.q.4.1.1.4.4.4.4.4.4.4.4.",
"eXeXrX<X-.e O . . X + % : e s d b b Y ' ' Y ) ] ] M V _ 1.Z A <._ F F _ w.i.i.w.w.w.w.5.5.2.2.1.4.4.4.1.1.1.<._ 1.1.1.4.4.4.4.4.",
"1X-.y O     . @ % & 6 5 a h I I D S S S D D _ { _ 4.4._ _ <.<.Z F 1.w.w.i.w.w.1.w.w.w.w.w.w.5.2.4.4.4.4.4.4.1.1.4.4.4.4.4.4.1.1.",
"o       O @ % : u i f M Q Q ] _ G H e.e.e.q.` C _ 4.w._ F 1.4._ 4.g.j.i.w.4.5.1.5.2.5.w.w.0.2.5.w.5.5.4.1.5.5.5.w.w.w.5.5.5.1.1.",
"  o @ < k J J f P I W Q 3.3.5.2.>.,.r.y.z.c.p.1._ F _ 4.4.4.4.i.h.c.j.w.1.4.w.w.2.2.2.2.2.2.2.2.w.5.5.1.1.5.w.w.w.w.w.w.w.w.5.5.",
"s k J P U / o...] ] 3.1.5.5.2.2.,.,.,.>.0.z.W.W.{.{.@X#XwX#X{.D.j.f.5.1.5.i.g.t.w.w.w.w.0.2.2.2.5.2.1.1.1.2.5.w.5.w.5.5.5.5.w.w.",
"i m ' { 7.u.i.i.g.g.f.t.t.r.r.r.r.0.0.1.1.1.w.j.aXlXzXlXlXlXwXj.w.F F 4.h.h.g.g.y.y.y.y.r.r.r.0.w.w.5.2.2.2.5.w.1.1.2.2.2.2.2.2.",
"A Z <.:.<.5.w.0.g.y.y.t.t.t.t.t.y.t.g.g.1.A Q i.#XgXlXgXgXjX=Xq.i.F A w.h.f.w.g.g.g.y.y.y.y.y.t.t.t.0.0.0.0.0.0.w.w.0.0.0.0.0.0.",
"Z :.:.:.2.r.0.:.2.2.2.0.0.0.t.y.h.f.f.f._ M 3.Q.yXsXgXjXjXfX0X{.D._ A q.g.1.1.h.f.g.y.g.g.g.g.y.g.g.g.g.y.t.t.0.y.y.y.t.t.0.0.w.",
"w.w.2.0.2.2.2.2.2.2.2.2.2.2.2.2.1.1.` 1.4.C { +XqXqXdXlXdXdXiX+XXXq.k.XXp.` q.1.4.5.5.w.5.5.9.r.t.y.y.g.g.g.g.g.h.g.g.g.g.g.y.t.",
"1.1.1.1.1.1.1.2.2.2.2.5.5.5.2.2.w.1.F F q.s.K.6X6XdXdXpXdXdXqX6X.XF.%XuXD.D ` 4.1.1.4.5.5.5.5.5.2.2.0.0.w.w.w.w.g.g.y.g.h.h.h.g.",
":.:.:.:.1.1.1.1.2.2.2.2.2.2.2.2.1.1.1.1.s..X Xa.N Z.OX7XqXa.v O..XXXuXfX+Xq._ q.1.1.1.<.<.<.<.<.1.1.1.1.2.2.5.5.w.w.w.w.f.f.f.t.",
"1.1.1.1.1.<.:.:.:.1.1.1.2.2.2.2.1.` q.u.s..X X[ + 3 @.5X).3 + w &X%X%XuXkX{.` ` ` 1.1.1.<.<.<.F 1.1.1.1.1.2.4.1.1.1.1.1.5.w.5.2.",
"1.1.2.1.1.1.2.1.1.1.2.1.2.2.2.2.w.` 1.q.q.F.OX).N N N.tXOX[ [ _.%X%X{.%XfX=Xu.` 4.4.1.1.5.1.<.<.1.1.1.1.1.1.<.<.1.1.1.1.4.4.1.<.",
"1.1.2.2.5.w.w.w.5.2.2.2.2.2.2.5.q.q.i.p.u.d.J.).7X'.OX6XOX7XpXqXJ.^.^.XXuX0XG.G.p.i.5.4.5.5.5.5.4.5.5.5.5.4.1.1.1.1.1.1.1.1.<._ ",
"q.q.q.w.w.w.w.w.w.w.5.5.5.5.5.5.i.D.G.D.k.d.@.@.).).M.@.N.2X Xk.k.F.^..X=X%XXX=X{.D.i.4.4.4.5.5.5.5.5.5.8.i.w.w.1.1.1.1.1.1.<.<.",
"w.q.w.w.5.4.4.4.i.w.5.5.5.5.5.5.G.=XXXS.N.a.@.@.%.T.$./ J._.N.J.F.^. X.X.X.X{.{.wX@Xj.4._ _ 4.4.<.<.1.1.5.5.w.w.i.w.5.w.i.i.5.5.",
"q.q.q.q.w.q.4.4.1.5.i.F <.5.Z j.wXXX XK.s.a.b.%.@.[ ~ ! [ @.a.a.k.J..X X X X.X+X.X+X+XD.` _ 4._ <._ _ <.<.1.<.<.<.1.1.1.1.5.5.5.",
"B C ) ) ] { { { _ { u.] 8.i.3.D.wX.X).J.a.a.b.%. .( ~ ~ / [ @.@.N.F.). X.X.X.XXX+X.XXX{.p.4.q.4.4.1.1.1.1.5.1.1.<.<.<.<.<.1.1.1.",
"3 3 3 9 q w w w M M W Q ] { 7. X3X X).K.N.b.M.b.+.+. . .[ ..@.d.F.J.^. X.X.X.X X+XK. XXXG.p.u.i.i.i.5.5.5.5.4.1.<.<.<._ <.<.1.1.",
"1 - - - 1 2 2 2 9 3 9 q q a { oXOX).).J.N.M.C.M.b.b.b.a.@.@.d.s.J.K.^. X.X.X{.K. XF.K..X^.F.x.p.i.w.w.w.w.w.5.5.1.1.1.<.<.1.1.4.",
"p 7 8 3 2 2 1 - 1 - & 1 & 1 o.OX).J.J.J.b.M.T.Z.C.C.C.M.d.d.k.F.^.^.). X+X X^.F.F.S.K.K.^. X^.p.i.t.w.w.f.f.f.w.w.w.w.5.5.5.w.w.",
"X. ./ ! U c d p u 8 2 3 & 1 $.oX).J.N.M.$.a.Z.T.T.(.T.J.N.N.J.).).). X.X+X.X).J.s.s.F.K.).%XOXx.g.f.f.g.h.h.h.h.f.f.f.f.f.t.t.t.",
"`.T.T.C.C.b.&.$.} / T R f c I.T.).C.b.$. .+.C.U.(.`.).).R.K.). X).). X+X+X+X.X X@.@.k.^..X+X.XD.h.g.g.h.h.z.z.h.h.h.h.h.h.g.y.t.",
"I.C.C.C.V.V.b.*.V.n.b.V.$.X.'.C.`.C.b. .~  .b.C.T.T.T.(.).K.^.^.). X.X+X%X6X%X%X[ ~ d. X+XOX).S.j.j.g.g.h.h.h.h.h.h.z.z.z.h.f.y.",
"U.C.U.C.C.V.b.b.b.b.b.b.%.*.T.2X`.T.M. .[ %.N.N.b.J.J.M.M.J.).^.K..X+X XOX3XOX).m 3 Y H.R.+X XB S D ) _ { q.u.p.j.j.j.c.c.c.c.g.",
"C.C.Z.Z.C.V.M.b.b.b.b.b.%.b.U.2X`.T.b.$. .%.b.b.N.C.N.a.a.k.Z.J.^. X+XOXOX6X2X).P 7 Y H.R.oXS.w 3 3 3 9 q w n n B D _ ` 4.4.q.q.",
"C.C.Z.Z.C.C.V.V.b.b.b.b.%.b.C.'.`.J.b.a.%.$.%.b.C.N.N.a.@.+.a.B.K.). X XOX3XoXJ.R p / H.R._.d.9 2 1 1 1 1 2 3 3 3 9 q w w n M C ",
"C.C.C.Z.U.C.C.C.b.b.b.b.%.%.V.T.].Z.b.b.a.$.$.b.J.C.N.M.@./  .N.J.^.).).OXOX).M./ b ' R.'.).a.b f f p u 7 3 1 1 1 1 1 1 6 3 3 9 ",
"C.C.C.Z.U.Z.Z.Z.b.b.b.b.%.%.b.C.].J.N.b.$.+.$.b.T.C.C.C.$.~ / a.S.J.). XOXOXR.a.U m ..R.'.).H...&.&.&.&.X./ U J f p 7 5 5 3 6 1 ",
"C.C.C.Z.C.Z.Z.Z.V.b.b.b.b.%.%.b.'.(.Z.a.$. .$.b.Z.C.C.C.%.! U / @.N.K.).oX'.N...m m  .R.'.'.R.C.E.E.E.E.E.I.L.n.n.X.} R R R P p ",
"C.C.C.C.C.C.C.Z.C.M.b.b.b.*.%.%.J.).).N.@. .$.a.C.Z.T.T.b.~ c c [ a.J.)._.T.b.' c m  .J.oX'.T.T.C.I.I.I.I.P.C.V.E.I.n.n.n.b.&.X.",
"C.C.C.C.C.C.C.C.Z.V.b.M.b.b.%.%.N.)._.N.@.+.$.%.Z.T.`.T.n.} c 0 [ k.).OXOX'.M. .P P  .T.2X'.T.J.T.U.I.P.C.V.V.V.V.n.n.n.n.n.n.n.",
"C.C.C.C.C.V.V.C.M.V.M.b.b.*.%.$.a.J.OX).a. .+.$.V.T.E.E.U. .f s [ OX).oX2XJ.C.U c U %.].9X'.J.C.T.T.J.C.C.V.V.V.V.V.M.b.b.b.b.V.",
"C.U.T.T.Z.C.C.C.C.C.C.V.b.*.%.$.a.T.OX'.N.@. . .V.T.E.T.U. .f s [ OX'.OX2XJ.C.U U ~ %.(.2X`.T.J.J.Z.Z.Z.C.C.M.M.M.M.M.b.b.b.b.b.",
"M.V.C.C.C.C.C.C.Z.C.C.V.b.b.%.$.$.N.J.V.%. . . .V.T.`.E.U. .b p ~ _.oX2X2XJ.M.U U T  .b.C.C.C.Z.Z.Z.B.B.N.N.M.M.M.M.M.M.M.M.M.M.",
"C.C.T.T.T.U.U.U.C.C.C.V.b.b.%.$.$.$.$. ./ (  . .V.T.'.`.U. .c b ! ).OX5X2XT.b.U U U ^ X.b.b.V.C.B.B.N.B.N.N.N.N.M.M.M.M.M.M.*.*.",
"T.T.T.T.T.Z.Z.Z.U.U.Z.C.V.b.%.$.$.$. .} /  . . .C.`.].'.U. .c c N ~.5X5X2XT.&.U T T ~ X.b.C.Z.J.C.N.C.N.N.N.N.N.M.M.M.M.M.M.b.*.",
"'.'.'.'.`.(.`.`.T.T.T.T.Z.M.*.$.$.&.$.X.X. . ./ C.`.].`.Z. .v N N Z.OXOX2X`.$.U T T / #.b.U.T.T.H.H.C.C.N.V.V.V.M.M.V.V.V.n.n.=.",
"b.M.V.C.Z.T.`.].T.T.(.`.T.C.b.b.&.&.&.&.$.X. ./ C.`.'.T.C.( v N U N.OX].2X'.$.K T T ^  .b.C.Z.C.H.H.H.C.V.V.V.V.V.V.V.V.V.n.=.=.",
"; 2 8 p b U (  .n.C.T.E.E.T.C.n.n.n.b.&.$.$.$.$.C.`.`.T.M.( v U ! N.2X].2X].#.K T T ^  .*.C.C.V.T.H.C.C.C.V.n.n.n.n.V.P.n.n.n.=.",
"a p u 0 5 3 2 1 4 5 t f T  .&.m.X.$.&.m.&.$.X. .b.T.T.(.M.( ! v U [ 2X2X2XC.#.K T T / X.n.P.P.n.C.C.C.C.V.M.n.n.b.n.n.n.n.n.n.n.",
"m m m f a p i i i u 5 5 4 6 6 - d f J U T R / / ( C.'.`.C. .^ ! /  .OX].2XC.$.K / ^ ^  .*.P.I.P.V.b.b.b.b.M.V.C.n.n.n.n.b.b.*.&.",
"m m m m m m c c p i u u t t t t - - - - : 6 6 4 s b.,X`.Z.#.U U / ( '.`.].C.$.U / ^ } X.*.P.I.I.`.T.U.C.n.b.b.b.V.n.n.n.n.n.n.n.",
"m m m m m m m c P P J f c f d s u t e 4 6 - = & ; $.,XT.U.#.d p c U T.`.].C.$.U U T } X.n.I.I.I.C.C.C.C.C.C.C.C.b.b.=.n.n.n.n.n.",
"P P m m m m m m P P J c J f d i d s s t t 5 4 - = } >XE.V.#.8 - 8 d T.'.].n. .U } }  .&.C.E.'.>XU.U.U.U.U.I.V.n.n.n.n.n.=.=.n.=.",
"P m m m m m m m f f f c P E E P t e e t t 5 : & : J >X>XV.#.4 $ = 8 V.'.2Xn./ b J J c J R X.&.n.U.U.U.E.T.U.I.I.U.U.I.I.P.L.n.=.",
"m m m m m m m m P m f d p i u u d s s s s t 4 = - e E.,Xn.#.t % = 2 b.`.4XV.~ t 1 - - - - 4 7 7 c J T  .&.n.I.U.n.n.P.I.I.I.P.L.",
"m m m m m P P P P m f d d f f d t t e y t e : & % & Y.4X*.#.s - - ; $.E.4XC.T 3 7 t u s s t 5 2 - ; : ; 5 t s f R } X.&.n.L.I.I.",
"m m M I I m h f m f f p u u u u t t t t t e 4 : : = } 4X*.*.; ; = 7 t T.'.n.T 5 u u u p p a f f f f s t 7 4 4 : 6 6 6 5 t d J T ",
"h m m m m m P I m m m h f a i u t t t t s t y t : : T U.#.=.> = % 4 7 n.E.C.U = 7 t u p f m P P P c c f f f p u i u t 5 4 6 4 4 ",
"g g a a a h m m h m m m f a u t t t t t t t t t t - J C.*.V.8 ; 6 4 4 n.'.U.U - 0 u p f m P T Y Y P P P E U P P c f d u e 5 6 6 ",
"g g q q q q i i h h m m f a u u s s t t t t 5 4 5 & c U.U.b.4 8 t : 4 n.'.n.c 7 p p f c m P I Y m m m P I I I P m m P P P h x h ",
"m h g g a q q q m m h a a i u i d s u t t 5 4 6 & ;  .T.U.b.; - - 4 J I.E.C.f 4 a f f m m m m M m m m M M I m m I I I I I P P j ",
"M M M M M m m h h a a i q q 0 0 t t t t 7 4 6 - & U '.T.U.Z.7 % $ L n.>XE.>XT 6 p a f m m P I I M M M M I I I M M I I I I I j j ",
"M B B Y Y Y Y I h h a a i u q 0 t t t t t 5 6 - - ^ '.U.Z.*.8 - = L P.>XI.T.c 5 a f m m M I I M B M M M C Y I M M M j M M I I I ",
"B B M M M M I I I I I I m m a a f f f c f s 7 6 - 8  .%.%.v # ; - - T P.$.R = 7 f c m P M I I M M V V V M C M M M M j j j j j j "
};
