/* XPM */
static char *_7846dde07534885d533f9dfdcac440dX1gZo4mFIKUk0fDE[] = {
/* columns rows colors chars-per-pixel */
"64 64 240 2 ",
"   c #151A34",
".  c #1E1B22",
"X  c #241B25",
"o  c #311E24",
"O  c #29232C",
"+  c #31232C",
"@  c #2A2835",
"#  c #3A2B33",
"$  c #342933",
"%  c #3B3339",
"&  c #25181F",
"*  c #42343B",
"=  c #4B3A3E",
"-  c #4D363A",
";  c #0B1E54",
":  c #091747",
">  c #182349",
",  c #0D2459",
"<  c #172757",
"1  c #272C44",
"2  c #2C3545",
"3  c #393747",
"4  c #2B355A",
"5  c #353C52",
"6  c #212B51",
"7  c #0A246B",
"8  c #0A2567",
"9  c #122763",
"0  c #072676",
"q  c #253663",
"w  c #061F6F",
"e  c #473C45",
"r  c #3A4252",
"t  c #3C4263",
"y  c #4A4349",
"u  c #5B4445",
"i  c #5D494B",
"p  c #554649",
"a  c #474958",
"s  c #594C54",
"d  c #5C545C",
"f  c #595357",
"g  c #624C4D",
"h  c #62494B",
"j  c #67574D",
"k  c #645353",
"l  c #6C5E51",
"z  c #655A5B",
"x  c #6B5B5C",
"c  c #685559",
"v  c #745C5C",
"b  c #745C5A",
"n  c #614E50",
"m  c #6E6054",
"M  c #6C615D",
"N  c #716256",
"B  c #74645A",
"V  c #76695D",
"C  c #796A5E",
"Z  c #78675D",
"A  c #595C64",
"S  c #4D526F",
"D  c #645B63",
"F  c #6C5D63",
"G  c #6F5F69",
"H  c #725F63",
"J  c #7B5E60",
"K  c #596170",
"L  c #6E6362",
"P  c #68656B",
"I  c #736364",
"U  c #7B6364",
"Y  c #7B6C62",
"T  c #73646A",
"R  c #746A6C",
"E  c #7B6B6C",
"W  c #786769",
"Q  c #7E7165",
"!  c #7E716B",
"~  c #696A76",
"^  c #7D6D73",
"/  c #766A75",
"(  c #7B7374",
")  c #7D747A",
"_  c #7D7A7C",
"`  c #767276",
"'  c #6D727E",
"]  c #826C6A",
"[  c #827466",
"{  c #83756B",
"}  c #867A6D",
"|  c #8A7D6D",
" . c #87786B",
".. c #816F73",
"X. c #847474",
"o. c #867973",
"O. c #8B7E73",
"+. c #84757A",
"@. c #89777C",
"#. c #847B7C",
"$. c #8B7C7C",
"%. c #8B7473",
"&. c #937E7C",
"*. c #907773",
"=. c #8B806F",
"-. c #868376",
";. c #8D8273",
":. c #85837B",
">. c #8C827B",
",. c #8D8874",
"<. c #908476",
"1. c #92847B",
"2. c #93897C",
"3. c #938779",
"4. c #0A2681",
"5. c #7A7A85",
"6. c #70748E",
"7. c #575E83",
"8. c #847B82",
"9. c #8C7D83",
"0. c #8A7E89",
"q. c #837782",
"w. c #917F85",
"e. c #827E95",
"r. c #7F8282",
"t. c #7D8396",
"y. c #848483",
"u. c #8C8384",
"i. c #84848A",
"p. c #8C848B",
"a. c #8C8A8C",
"s. c #898A89",
"d. c #938483",
"f. c #93858A",
"g. c #948A8C",
"h. c #9B8C8C",
"j. c #998886",
"k. c #96908E",
"l. c #8B8B94",
"z. c #898897",
"x. c #948C93",
"c. c #9B8D92",
"v. c #948B96",
"b. c #8E9194",
"n. c #949295",
"m. c #9B9294",
"M. c #95939B",
"N. c #9C949B",
"B. c #9C9A9B",
"V. c #989997",
"C. c #8B908F",
"Z. c #A28D8C",
"A. c #A5918E",
"S. c #A49494",
"D. c #A3959A",
"F. c #A49B9C",
"G. c #AB9B9C",
"H. c #A99796",
"J. c #B29D9D",
"K. c #A58F92",
"L. c #A5A19F",
"P. c #9E9AA3",
"I. c #9896A3",
"U. c #8992AE",
"Y. c #A39CA3",
"T. c #AB9DA2",
"R. c #A39EA9",
"E. c #A196A2",
"W. c #B19EA4",
"Q. c #9AA2AD",
"!. c #ABA3A5",
"~. c #A6A2AB",
"^. c #ABA5AC",
"/. c #ADA9AB",
"(. c #A6A2A4",
"). c #B3A2A3",
"_. c #B2A5AB",
"`. c #B3ACAD",
"'. c #BBABAC",
"]. c #B9A7A6",
"[. c #AAA5B1",
"{. c #ADAAB3",
"}. c #A8AAB5",
"|. c #B2ADB4",
" X c #B9AEB7",
".X c #B5B1B4",
"XX c #BAB3B5",
"oX c #B5B2BB",
"OX c #BBB5BB",
"+X c #BCBABC",
"@X c #ADB3BE",
"#X c #C3BBBC",
"$X c #C5B6BA",
"%X c #C5B3B4",
"&X c #C1C0BE",
"*X c #BDBBC3",
"=X c #B7B7C6",
"-X c #B0B3C7",
";X c #C4BDC2",
":X c #CABCC3",
">X c #C3BECA",
",X c #D2BDC2",
"<X c #BDC3CC",
"1X c #BFC6D3",
"2X c #C4C3C4",
"3X c #CBC4C5",
"4X c #C5C2CC",
"5X c #CCC4CB",
"6X c #CDCACC",
"7X c #C8C8CB",
"8X c #D2C5CC",
"9X c #D2CCCE",
"0X c #D8C7CB",
"qX c #CAC6D3",
"wX c #CDCBD3",
"eX c #CECCD9",
"rX c #C4C8D7",
"tX c #D2CDD3",
"yX c #D9CCD3",
"uX c #D1CEDB",
"iX c #D3C7D3",
"pX c #D4D1D4",
"aX c #DBD3D5",
"sX c #D5D3DD",
"dX c #DBD4DC",
"fX c #DCD9DC",
"gX c #CED0D5",
"hX c #E2D5DA",
"jX c #E2DCDD",
"kX c #E7D4D9",
"lX c #E1CCD1",
"zX c #DBD9E3",
"xX c #CBCFE4",
"cX c #E4DCE4",
"vX c #E9E4E9",
"bX c #F3E6E9",
"nX c #F2EEF5",
"mX c #FDFAFF",
"MX c #F7F4FB",
"NX c #E9E7F1",
/* pixels */
"B Q ].%X$.E @.+.@.@.@.$.$.$.>.d.j.j.g.h.c.h.h.m.m.F.B.Y.~.[.{.oXsXNXMXMXmXmXMXMXnXmXmXvX4X|.[.{.[.[.~.R.Y.Y.Y.D.D.m.h.f.g.g.g.f.",
"Y Y h.'.].j...X...X.@.d.$.o.o.>.u.>.u.g.g.g.g.m.m.F.Y.Y.~.^.[.{.[.oX4XsXnXmXmXMXmXmXcXOX^.[.[.R.R.P.P.P.P.N.N.m.g.g.f.u.u.f.f.f.",
"V Y d.].#X$Xh.W $.@.+.X.$.d.d.>.u.u.d.g.g.f.g.g.f.c.n.M.P.P.R.[.{.[.R.R.|.4XfXnXnXtXoX^.^.~.R.~.I.N.M.M.N.m.c.g.g.d.d.d.f.f.u.9.",
"B N 1.H.].yX,Xh.E ^ ..X.X.X.o.o.#.$.u.d.d.d.u.f.g.m.x.x.v.M.P.~.P.~.[.{.{.~.~.{.OX^.Y.~.^.R.Y.~.M.x.l.a.g.g.f.u.u.d.g.g.u.$.9.u.",
"Z j { h.S.%X0XlXW.$.I E X.( ! o.X.#.u.u.u.u.u.f.8.u.p.p.v.v.v.P.R.I.M.M.Y.Y.P.~.B.~.Y.M.v.Y.Y.v.l.s.u.y.u.s.u.u.h.d.#.#.#.#.$.u.",
"l b { j.S.S.).lXbX,Xc.....$.$.#.#.$.u.u.u.u.u.u.g.c.n.N.N.v.l.l.M.I.B.I.Y.P.N.P.P.Y.P.n.M.P.P.v.a.u.y.y.u.s.u.u.#.>.>.u.:.f.!.#X",
"j Z %.d.S.S.K.].,XkXkX%Xh.d.d.d.d.g.m.m.m.D.F.!.9X9X6X6X5XoXR.P.oX*X*XoX|.[.[.{.oX{.~.[.[.R.P.Y.x.g.g.g.g.f.d.u.u.o.:.L.3XhXhXaX",
"B j ] 1.h.G.J.G.'.$XkXbX0X).D.!.!.`.XX$X#X9XjXvXvXvXvXnXnXvXdXdXvXNXzXsXsXsXsXtXsXtX4XOX[.^.R.R.N.N.B.N.m.g.u.u.g.'.aXbXvXaXaXhX",
"N N  .j.1.h.J.J.J.$X0XkXbXkX8X:X8X9XpXaXjXbXbXvXjXjXvXvXvXNXNXNXvXvXvXvXNXNXNXcXsXzXsXwXqX4X>XoX^.|.OX XT.T.XX8XbXbXbXhXaXhXjXaX",
"b b { 1.&.j.H.H.G.'.$X3XhXhX0XiX5XtXpXpXaXjXjXfX9XpXaXdXfXdXdXsXsXsXsXsXzXzXzXzXwXeXwX4X4XwXwXqXqXtXtXwXyXhXcXvXhXaX8X:X#X:X;XOX",
"V B [ O.O.1.A.S.H.).%X:X8XyXyXiX6XtXpX9X9XpXpXpX6X6X9XtXtXtXtXwXwXwXwXwXpXsXsXsXwXqX4X>X>XqXeXwXzXdXuXtXdXcXhX8X:X#X'._._.T.T.D.",
"[ Y [ } %.2.H.G.H.).%X#X:X5X8X5XiXtXtX9X9X9XpX9X6X6X6X9XwXtXpXpXeXgXwXwXeXeXeXeXeXwXqX>X>XqXwXwX4XqXtXtXuXyX8X:X$X'.T.G.G.D.c.c.",
"[ Q { O.1.j.H.].H.).%X#X:X5XiXiXiXwXwX6XtXpXpXpX6X6X6X6X6X6X6X7X7X6XwXwXwXeXwXqXeXeXeXeXeXuXuXeXqXqXtXyXqX;X$X$X'.).J.G.H.h.h.Z.",
"[ { O.;.1.2.h.S.Z.).#X8XyXyXyXtXtXtXwXtXpXpXpXpX7X6X9XtX6X7X2X*X*X2X7X6XeXsXuXeXeXeXuXsXsXuXeXwXwX4X*X*X|.T.G.T.J.G.H.S.Z.j.h.S.",
"} | -.-.>.1.j.S.H.%X0XdXcXdXiXtXpXpXpXpX6X6X6X6X6X6X6X6X7X2X*X+X+X2X7XwXeXsXsXsXuXeXuXuXuXeXqXqX>X*XoX^.Y.N.S.G.Z.h.h.d.&.1.Z.H.",
"o.-.>.>.2.h.H.'.#XaXhXyXdXyX8XdXwXwXtX6X2X;X+X2X7X2X2X&X+X+X+X+X2X2X6X6XeXtXuXuXeXeXeXeXuXeXeXeXwXqX4X XF.c.c.S.d.1.&.*.*.1.A.J.",
":.>.>.:.u.D.%X9XhXyXiXyXyX8X:X;X;XtX9X3X|.!.+X+X#X;X3X2X.X/..XOX+X+X;X2XwXpXwX5X4X5XwXeXeXwXrXrXqXtXqX>XOX^.c.w.U ] ] ] %.Z.].J.",
"y.s.s.a.V.^.;XaXaXyXyX8X5X#X X_.`.`.^._.^.!.XXOXXXOX+XXX/..XXX.XF.(./.`.XXOX|./.^./.oX*X4X4X<X*X>X>X>X;X#X`.S.%.J U v v ] j.].).",
"` _ ) u./.2X6XdX5X5X#X X_._._.^.!.!.m.m.F.T.`.XXXXOXXX`.!././.V.a.s.a.c.N.N.N.N.^.^.^.{.oX*X*X*XoX XoXOX#X#X!.$.%.U v v U &.'.].",
"% y f i.4XfX4X.X X_.F.x.p.g.c.c.c.g.#.+.g.T.`.XXXXXX.X^.F.B.g._ #.( ` ) 8.p.c.m.B.(.{.OX*X*XoX|.[.Y.^.|.XX2X#XH.d.b k c v %.].).",
"A a a 5.*XgX+X~.x.x.p.p.f.x.g.f.g.u.#.) f.T.!.!.`./.^.(.n.p.#.` ( ^ R ` +.9.f.g.D.Y.{.oXoX|.{.^.^.N.Y.Y.(.XX3X%Xh.k u k v { ).].",
"K A ' }.wX<XP.i.8._ ) _ 8.9.8.8.8.#.f.g.p.c.m.m./.!.!.T.c.u.8.#.( ( +.+.( ( ^ ^ p.x.N.~.|.|.[.^.(.N.N.n.n.(.XX#XH.U k c I W J.'.",
"r r ' @X<X}.b.5.5.~ d s y e e y d p R p.u.u.f.m.!.!._.!.N.c.g.u.$.u.u.E z f s s e p G 8.P.^.~.Y.N.n.x.n.V.V.!.XX'.f.X.z x M S._.",
"2 2 5.<X1XQ.5.P ~ f e % O . X + D $ p #.f.g.u.u.g.F.^.!.F.T.D.f.g.c.9.c * # * * + X o % d ` 0.p.x.a.a.V.L.B.L.`.#X'.S.R M L F.XX",
"2 K -XxXrXQ.~ P A d % X $ O . O % * % d 8.f.f.+.u.m.F.T.T.F.D.F.S.G.+.= * # # i e # $ $ # y P 8.p.a.n.V.V.V.B.!.3X#X#XXXF.F.`.XX",
"r t.rXxX1XI.~ K i.P % O O X % _ $ e y e #.g.f.u.u.m.F.F.D.D.m.D.!.m.I i * # * f.s + $ * # d 0.8.u.u.a.n.V.V.V.V.(.#X5X3X3X/.m.F.",
"a z.xXrX=XI.' P l.~ 3 . X . $ d % s z % 8.p.#.u.u.m.D.D.m.m.h.S.H.h.F I p = & i = X X % z q.f.q.8.:.u.a.b.b.b.b.n..X2X6X3X/.g.k.",
"5 t.1X=X@Xb.~ P 5.5.s O X @ @ O + / p.y ^ f.c.f.u.c.S.m.h.g.h.S.D.$.i c H ..* o # + # d q.p.9.8.( _ i.a.C.C.a.a.V.B..X;X|.!.B.a.",
"r t.=X-X}.i.P A _ 8.~ e @ X O $ e * * d f.u.u.9.u.c.c.h.g.g.h.D.G.@.k p = i x 9.g.s e G +.9.) f R ( #.y.s.s.s.a.n.n.!..X`./.(.k.",
"a z.-X}.~.5.P d D ` _ P a 3 3 e y D F +.9.x.D.f.u.g.f.f.g.j.h.D.H.X.I z U H F H c s / f.p./ D D z L _ r.r.y.i.s.i.n.n.N./.^.V.V.",
"3 z.-XP.P.5.P A y D ` 5.q.5.) / q.8.8.f.f.c.f.u.u.f.d.d.d.d.h.D.).h.d.@.w.f.f.@.w.0.^ T T f p D z L ` _ r.y.i.r.y.l.p.p.V.V.n.V.",
"2 z.-XI.M.i.~ D D D P 5.p.p.v.E.N.N.N.x.c.N.9.g.u.d.9.9.d.d.h.S.T.h.H.W.W.).W.T.T.w.^ G d z D z L I ` _ y.y.y.r.y._ p.g.u.a.V.s.",
"5 I.@Xl.i.i.R ` _ _ 5.8.p.M.R.^.^.Y.T.D.c.D.f.@.+.$.9.$.d.d.j.h.S.S.H.G.].].W.D.f.f.+.T G T G D z L ( :.:.:.:.:.:.:.y.s.s.s.s.s.",
"5 z.oXM.s.i.` 8.9.0.f.v.N.E.Y.Y.Y.D.D.c.c.c.9.E ^ X.@.$.d.d.j.h.S.S.S.H.).]._.T.c.c.w.^ G H H F R ( #.:.-.-.-.-.-.:.:.y.u.u.i.i.",
"2 ' I.l.5.8.` ) ) q.0.v.N.E.Y.Y.Y.N.m.g.g.h.X.H W ....X.$.$.$.&.h.A.S.S.G.).).T.T.T.D.f.+.^ ^ +.+.#.:.:.>.>.>.-.-.-.-.:.y.y.y.i.",
"2 A z.M.i.p.u.8.^ ) q.0.f.v.N.N.F.c.c.g.g.9.U x H W E W E E ..X.h.h.S.S.G.T.T.G.g.f.w.9.^ E ^ +.$.$.:.>.>.>.>.>.-.-.-.-.:.:.:.:.",
"1 r 5.M.8.8.8._ 8.8.8.0.0.0.f.f.g.u.d.g.f.^ k k c H U U U U U ..&.d.h.h.h.h.h.g.c.g.f.f.9.@.9.d.$.:.:.>.>.>.-.-.-.-.-.-.-.-.:.:.",
"@ 5 5.M._ ` _ _ ) ) +.q.q.8.8.#.+.( #.u.d.I u i k v U W U v b I o.$.$.$.@.@.9.w.g.w.9.9.w.9.9.9.d.1.d.>.>.>.-.-.-.-.-.-.-.-.>.>.",
"  @ ~ i.~ P R P G T T / ^ ) +.+.E E ( ( $.I u i g c b v v v c v o.$.$.$.+.@.9.d.d.9.@.@.9.d.9.@.d.1.1.1.>.;.-.;.;.;.;.-.-.-.-.>.",
"1 1 ~ l.5._ _ R T T T T T T T R E ( R L E W k k u h h g b v v U U E X.X.^ ^ X.+.@.@.+.@.9.d.d.$.&.1.>.$.O.;.;.,.;.;.;.;.-.-.-.-.",
"a a 5.z.l.i.8.p.+./ F F G G G I I I I I W W B k u u = u g b v U I I I I E ^ ..^ ../ E X.9.f.d.$.&.1.1.;.O.;.;.,.,.;.;.;.;.;.;.;.",
"1 1 6.I.i.s.p.) +./ G F F F F L L I I I I W B c g h u h g b v v I I I I W E ^ ..^ ^ X.+.9.d.d.d.1.1.1.>.;.;.;.<.,.,.;.;.;.;.;.;.",
"1   S z.l.s.p.8.q.+./ G x x x x M L L L M M x k k g h h g c c x x z x F I W E ^ E X.+.@.$.$.$.>.1.1.1.1.1.1.<.1.1.-.| | | ;.;.;.",
"  1 a I.[.N.p.p.9.0.+.T F x z c z M L M x z k g g h u u i g k k k k x I I W W E ^ +.$.$.$.X.$.#.1.1.2.2.2.1.1.1.1.;.} } | ;.O.| ",
"> S ~ I.P.s.8.g.9.u.9.^ T F z k z x L L x z k k g i i u u i g g k z x I I W W E +.@.$.$.$.$.$.$.;.,.3.2.2.2.1.1.1.;.O.O.;.;.O.} ",
"S 5 1 ' I.N.x.+.9.9.9.+./ I x z f k z z z k k k k k k k g g n k k k z x I E X.X.+.@.$.$.$.$.d.1.O.,.2.2.2.2.2.1.1.;.;.;.1.;.} { ",
"    5 6.I.x.x.c.9.9.@.@.+.E I x k k k k k k k k z x x x x z z z k z z F W X.$.$.@.+.X.X.$.$.1.1.,.,.,.,.2.2.2.2.1.;.O.O.;.O.{ { ",
"  S 7.~ M.I.p.p.f.9.@.$.@...U I I L x x z x x x x H U U I I I I I I I E X.X.$.$.$.$.$.o.o.#.1.1.2.,.,.,.,.,.2.2.1.1.>.>.>.O.{ { ",
"S 7.S t 7.z.z.i.g.d.$.$.$...U I I I F x x x x x x I I I E E W E E E E ! ! X.o.o.o.O.>.1.1.>.O.O.;.,.1.,.,.;.;.,.1.1.;.;.;.} Q V ",
"S 4 > 6 5 K t.z.l.u.d.d.$.%.X...W I I F x x x x I I I I I I I I W W E E ! ! ! { { o.O.;.>.1.1.1.;.;.,.,.,.,.;.;.O.O.;.;.O.{ Q Y ",
"4 < > 6 4 4 S z.l.u.f.f.$.$.&.X.E E W I I I I I I W I U W W I W E E ! { { { ! Q } } O.O.;.;.1.2.;.;.;.;.,.,.;.O.O.;.1.;.} Q Y C ",
"< < > < 4 > 4 6.z.v.f.d.d.w.$.$.+.X.X.E W W W W E X.E E X.X.X.X.X.{ X.} { } } } O.O.O.O.O.;.;.<.,.;.;.;.-.;.;.;.O.;.;.O.{ Y C C ",
"< : : < > < 4 t e.I.v.9.f.d.$.$.$.$.X.X.^ E E E X.X.X.X.$.X.{ X.X.o.X.o.} } O.O.;.;.;.;.| | O.;.,.,.1.,.;.;.;.<.| } { Q Y C V V ",
"; , , ; , < < 6 K e.l.0.g.d.$.1.$.$.@.X.X.X.E E X.X.X.X.#.$.X.o.O.O.O.o.O.O.;.;.| ;.;.;.O.O.O.;.=.,.2.2.3.<.;.;.;.} Q V Z B B N ",
"< q , : , , , q 4 K z.x.f.u.u.>.$.$.$.o.X.X.X.X.X.o.o.o.>.>.$.>.>.;.O.;.;.;.;.;.| | =.=.| | ;.<.=.;.<.1.3.1.<.;.;.} Q V B N N m ",
", ; ; 8 8 9 9 ; : a z.R.p.u.h.:.d.9.$.$.$.$.#.#.>.1.$.O.>.>.$.$.;.;.;.;.;.;.;.=.| | | | | | ;.<.;.;.O.O.;.<.1.3.Q Q C B N N B B ",
"9 8 8 8 8 8 9 < < t -X=XY.u.h.>.$.$.$.$.$.>.1.1.$.$.>.1.1.1.1.1.<.O.O.;.;.| | | } | | ;.;.;.;.;.;.<.<.;.;.;.} [ C C V V B m N B ",
"7 8 7 7 7 7 9 9 < 7.=XqXOXm.g.d.d.$.$.$.$.$.>.$.1.1.1.2.2.2.1.1.<.;.O.;.<.| | | | | =.;.;.;.;.| | ;.;.O.O.| [ B B B B B N m N B ",
"7 7 7 0 0 0 7 , < 6.xXqX5XT.d.g.j.d.1.>.$.>.$.$.1.1.2.j.j.2.2.3.1.;.| ;.;.=.| | =.=.;.=.;.;.O.O.;.;.;.| | } C l m m N B B N N B ",
"w 0 0 0 0 7 8 , < U.xXqX>XT.d.d.j.j.d.1.1.1.>.$.>.1.1.1.1.3.3.3.1.;.| ;.;.<.| | <.;.;.;.;.;.O.O.| | }  . .[ B j l l N B Z Z Z Z ",
"0 0 0 0 0 0 8 , q U.xXqX*XT.c.d.j.d.d.d.d.1.1.1.O.O.O.O.O.;.<.<.<.<.;.;.;.<.=.| <.=.=.=.;.;.O.| [ Q C C C V m j l m N B Z Y Y Y ",
"0 0 0 0 0 0 8 , q U.xXeXOX!.m.u.j.d.d.d.d.d.1.1.;.;.O.O.O.O.;.<.<.<.;.;.;.;.=.| | | | | O.| } { Y V N m m N m l m N N N Z Y Y Y ",
"4.4.0 0 0 0 8 , q U.rXqXOX!.c.u.j.d.d.d.d.d.1.>.1.<.<.<.;.;.| | | O.;.| } | | } } }  . .}  .Q C C B m l l m N B B B N N B Y ] Y ",
"4.0 0 0 0 0 8 , q Q.rX*X*X!.g.g.j.d.d.d.2.1.>.O.O.O.;.;.| } [ [  .} |  .[ [  .[  .[ [ [ { [ C N V N m l l l N V C Z B N B Y [ [ "
};
